G75*
%MOIN*%
%OFA0B0*%
%FSLAX25Y25*%
%IPPOS*%
%LPD*%
%AMOC8*
5,1,8,0,0,1.08239X$1,22.5*
%
%ADD10C,0.00000*%
%ADD11R,0.04337X0.04731*%
%ADD12R,0.04731X0.04337*%
%ADD13R,0.06699X0.09061*%
%ADD14C,0.05943*%
%ADD15R,0.05124X0.01660*%
%ADD16R,0.01660X0.05124*%
%ADD17R,0.05912X0.04337*%
%ADD18OC8,0.06400*%
%ADD19C,0.06400*%
D10*
X0008340Y0016382D02*
X0008340Y0193548D01*
X0205190Y0193548D01*
X0205190Y0016382D01*
X0008340Y0016382D01*
D11*
X0054600Y0037052D03*
X0061293Y0037052D03*
X0060899Y0045910D03*
X0054206Y0045910D03*
X0054206Y0054768D03*
X0060899Y0054768D03*
G36*
X0092347Y0037505D02*
X0095413Y0034439D01*
X0092069Y0031095D01*
X0089003Y0034161D01*
X0092347Y0037505D01*
G37*
G36*
X0097080Y0032772D02*
X0100146Y0029706D01*
X0096802Y0026362D01*
X0093736Y0029428D01*
X0097080Y0032772D01*
G37*
G36*
X0106023Y0025514D02*
X0102957Y0022448D01*
X0099613Y0025792D01*
X0102679Y0028858D01*
X0106023Y0025514D01*
G37*
G36*
X0101291Y0020781D02*
X0098225Y0017715D01*
X0094881Y0021059D01*
X0097947Y0024125D01*
X0101291Y0020781D01*
G37*
G36*
X0126482Y0021178D02*
X0129548Y0024244D01*
X0132892Y0020900D01*
X0129826Y0017834D01*
X0126482Y0021178D01*
G37*
G36*
X0131215Y0025911D02*
X0134281Y0028977D01*
X0137625Y0025633D01*
X0134559Y0022567D01*
X0131215Y0025911D01*
G37*
G36*
X0157692Y0070562D02*
X0154626Y0073628D01*
X0157970Y0076972D01*
X0161036Y0073906D01*
X0157692Y0070562D01*
G37*
G36*
X0152959Y0075295D02*
X0149893Y0078361D01*
X0153237Y0081705D01*
X0156303Y0078639D01*
X0152959Y0075295D01*
G37*
G36*
X0134358Y0094051D02*
X0131292Y0097117D01*
X0134636Y0100461D01*
X0137702Y0097395D01*
X0134358Y0094051D01*
G37*
G36*
X0129626Y0098783D02*
X0126560Y0101849D01*
X0129904Y0105193D01*
X0132970Y0102127D01*
X0129626Y0098783D01*
G37*
D12*
X0146135Y0105556D03*
X0146135Y0112249D03*
X0146135Y0118351D03*
X0146135Y0125044D03*
X0068379Y0059690D03*
X0068379Y0052997D03*
X0068379Y0047485D03*
X0068379Y0040792D03*
D13*
G36*
X0081156Y0036980D02*
X0085892Y0032244D01*
X0079486Y0025838D01*
X0074750Y0030574D01*
X0081156Y0036980D01*
G37*
G36*
X0088951Y0029185D02*
X0093687Y0024449D01*
X0087281Y0018043D01*
X0082545Y0022779D01*
X0088951Y0029185D01*
G37*
D14*
X0032946Y0040201D03*
X0032946Y0057524D03*
X0032356Y0146501D03*
X0032356Y0163823D03*
D15*
G36*
X0124862Y0101160D02*
X0121240Y0097538D01*
X0120066Y0098712D01*
X0123688Y0102334D01*
X0124862Y0101160D01*
G37*
G36*
X0126254Y0099769D02*
X0122632Y0096147D01*
X0121458Y0097321D01*
X0125080Y0100943D01*
X0126254Y0099769D01*
G37*
G36*
X0127646Y0098377D02*
X0124024Y0094755D01*
X0122850Y0095929D01*
X0126472Y0099551D01*
X0127646Y0098377D01*
G37*
G36*
X0129037Y0096985D02*
X0125415Y0093363D01*
X0124241Y0094537D01*
X0127863Y0098159D01*
X0129037Y0096985D01*
G37*
G36*
X0130429Y0095593D02*
X0126807Y0091971D01*
X0125633Y0093145D01*
X0129255Y0096767D01*
X0130429Y0095593D01*
G37*
G36*
X0131821Y0094201D02*
X0128199Y0090579D01*
X0127025Y0091753D01*
X0130647Y0095375D01*
X0131821Y0094201D01*
G37*
G36*
X0133213Y0092809D02*
X0129591Y0089187D01*
X0128417Y0090361D01*
X0132039Y0093983D01*
X0133213Y0092809D01*
G37*
G36*
X0134605Y0091417D02*
X0130983Y0087795D01*
X0129809Y0088969D01*
X0133431Y0092591D01*
X0134605Y0091417D01*
G37*
G36*
X0135997Y0090025D02*
X0132375Y0086403D01*
X0131201Y0087577D01*
X0134823Y0091199D01*
X0135997Y0090025D01*
G37*
G36*
X0137389Y0088633D02*
X0133767Y0085011D01*
X0132593Y0086185D01*
X0136215Y0089807D01*
X0137389Y0088633D01*
G37*
G36*
X0138781Y0087241D02*
X0135159Y0083619D01*
X0133985Y0084793D01*
X0137607Y0088415D01*
X0138781Y0087241D01*
G37*
G36*
X0140173Y0085849D02*
X0136551Y0082227D01*
X0135377Y0083401D01*
X0138999Y0087023D01*
X0140173Y0085849D01*
G37*
G36*
X0141565Y0084457D02*
X0137943Y0080835D01*
X0136769Y0082009D01*
X0140391Y0085631D01*
X0141565Y0084457D01*
G37*
G36*
X0142957Y0083065D02*
X0139335Y0079443D01*
X0138161Y0080617D01*
X0141783Y0084239D01*
X0142957Y0083065D01*
G37*
G36*
X0144349Y0081673D02*
X0140727Y0078051D01*
X0139553Y0079225D01*
X0143175Y0082847D01*
X0144349Y0081673D01*
G37*
G36*
X0145741Y0080281D02*
X0142119Y0076659D01*
X0140945Y0077833D01*
X0144567Y0081455D01*
X0145741Y0080281D01*
G37*
G36*
X0147133Y0078889D02*
X0143511Y0075267D01*
X0142337Y0076441D01*
X0145959Y0080063D01*
X0147133Y0078889D01*
G37*
G36*
X0148525Y0077497D02*
X0144903Y0073875D01*
X0143729Y0075049D01*
X0147351Y0078671D01*
X0148525Y0077497D01*
G37*
G36*
X0149917Y0076105D02*
X0146295Y0072483D01*
X0145121Y0073657D01*
X0148743Y0077279D01*
X0149917Y0076105D01*
G37*
G36*
X0151309Y0074714D02*
X0147687Y0071092D01*
X0146513Y0072266D01*
X0150135Y0075888D01*
X0151309Y0074714D01*
G37*
G36*
X0152701Y0073322D02*
X0149079Y0069700D01*
X0147905Y0070874D01*
X0151527Y0074496D01*
X0152701Y0073322D01*
G37*
G36*
X0154092Y0071930D02*
X0150470Y0068308D01*
X0149296Y0069482D01*
X0152918Y0073104D01*
X0154092Y0071930D01*
G37*
G36*
X0155484Y0070538D02*
X0151862Y0066916D01*
X0150688Y0068090D01*
X0154310Y0071712D01*
X0155484Y0070538D01*
G37*
G36*
X0156876Y0069146D02*
X0153254Y0065524D01*
X0152080Y0066698D01*
X0155702Y0070320D01*
X0156876Y0069146D01*
G37*
G36*
X0158268Y0067754D02*
X0154646Y0064132D01*
X0153472Y0065306D01*
X0157094Y0068928D01*
X0158268Y0067754D01*
G37*
G36*
X0115118Y0024604D02*
X0111496Y0020982D01*
X0110322Y0022156D01*
X0113944Y0025778D01*
X0115118Y0024604D01*
G37*
G36*
X0113726Y0025996D02*
X0110104Y0022374D01*
X0108930Y0023548D01*
X0112552Y0027170D01*
X0113726Y0025996D01*
G37*
G36*
X0112334Y0027387D02*
X0108712Y0023765D01*
X0107538Y0024939D01*
X0111160Y0028561D01*
X0112334Y0027387D01*
G37*
G36*
X0110942Y0028779D02*
X0107320Y0025157D01*
X0106146Y0026331D01*
X0109768Y0029953D01*
X0110942Y0028779D01*
G37*
G36*
X0109550Y0030171D02*
X0105928Y0026549D01*
X0104754Y0027723D01*
X0108376Y0031345D01*
X0109550Y0030171D01*
G37*
G36*
X0108158Y0031563D02*
X0104536Y0027941D01*
X0103362Y0029115D01*
X0106984Y0032737D01*
X0108158Y0031563D01*
G37*
G36*
X0106766Y0032955D02*
X0103144Y0029333D01*
X0101970Y0030507D01*
X0105592Y0034129D01*
X0106766Y0032955D01*
G37*
G36*
X0105374Y0034347D02*
X0101752Y0030725D01*
X0100578Y0031899D01*
X0104200Y0035521D01*
X0105374Y0034347D01*
G37*
G36*
X0103983Y0035739D02*
X0100361Y0032117D01*
X0099187Y0033291D01*
X0102809Y0036913D01*
X0103983Y0035739D01*
G37*
G36*
X0102591Y0037131D02*
X0098969Y0033509D01*
X0097795Y0034683D01*
X0101417Y0038305D01*
X0102591Y0037131D01*
G37*
G36*
X0101199Y0038523D02*
X0097577Y0034901D01*
X0096403Y0036075D01*
X0100025Y0039697D01*
X0101199Y0038523D01*
G37*
G36*
X0099807Y0039915D02*
X0096185Y0036293D01*
X0095011Y0037467D01*
X0098633Y0041089D01*
X0099807Y0039915D01*
G37*
G36*
X0098415Y0041307D02*
X0094793Y0037685D01*
X0093619Y0038859D01*
X0097241Y0042481D01*
X0098415Y0041307D01*
G37*
G36*
X0097023Y0042699D02*
X0093401Y0039077D01*
X0092227Y0040251D01*
X0095849Y0043873D01*
X0097023Y0042699D01*
G37*
G36*
X0095631Y0044091D02*
X0092009Y0040469D01*
X0090835Y0041643D01*
X0094457Y0045265D01*
X0095631Y0044091D01*
G37*
G36*
X0094239Y0045483D02*
X0090617Y0041861D01*
X0089443Y0043035D01*
X0093065Y0046657D01*
X0094239Y0045483D01*
G37*
G36*
X0092847Y0046875D02*
X0089225Y0043253D01*
X0088051Y0044427D01*
X0091673Y0048049D01*
X0092847Y0046875D01*
G37*
G36*
X0091455Y0048267D02*
X0087833Y0044645D01*
X0086659Y0045819D01*
X0090281Y0049441D01*
X0091455Y0048267D01*
G37*
G36*
X0090063Y0049659D02*
X0086441Y0046037D01*
X0085267Y0047211D01*
X0088889Y0050833D01*
X0090063Y0049659D01*
G37*
G36*
X0088671Y0051051D02*
X0085049Y0047429D01*
X0083875Y0048603D01*
X0087497Y0052225D01*
X0088671Y0051051D01*
G37*
G36*
X0087279Y0052442D02*
X0083657Y0048820D01*
X0082483Y0049994D01*
X0086105Y0053616D01*
X0087279Y0052442D01*
G37*
G36*
X0085887Y0053834D02*
X0082265Y0050212D01*
X0081091Y0051386D01*
X0084713Y0055008D01*
X0085887Y0053834D01*
G37*
G36*
X0084495Y0055226D02*
X0080873Y0051604D01*
X0079699Y0052778D01*
X0083321Y0056400D01*
X0084495Y0055226D01*
G37*
G36*
X0083103Y0056618D02*
X0079481Y0052996D01*
X0078307Y0054170D01*
X0081929Y0057792D01*
X0083103Y0056618D01*
G37*
G36*
X0081711Y0058010D02*
X0078089Y0054388D01*
X0076915Y0055562D01*
X0080537Y0059184D01*
X0081711Y0058010D01*
G37*
D16*
G36*
X0081711Y0065306D02*
X0080537Y0064132D01*
X0076915Y0067754D01*
X0078089Y0068928D01*
X0081711Y0065306D01*
G37*
G36*
X0083103Y0066698D02*
X0081929Y0065524D01*
X0078307Y0069146D01*
X0079481Y0070320D01*
X0083103Y0066698D01*
G37*
G36*
X0084495Y0068090D02*
X0083321Y0066916D01*
X0079699Y0070538D01*
X0080873Y0071712D01*
X0084495Y0068090D01*
G37*
G36*
X0085887Y0069482D02*
X0084713Y0068308D01*
X0081091Y0071930D01*
X0082265Y0073104D01*
X0085887Y0069482D01*
G37*
G36*
X0087279Y0070874D02*
X0086105Y0069700D01*
X0082483Y0073322D01*
X0083657Y0074496D01*
X0087279Y0070874D01*
G37*
G36*
X0088671Y0072266D02*
X0087497Y0071092D01*
X0083875Y0074714D01*
X0085049Y0075888D01*
X0088671Y0072266D01*
G37*
G36*
X0090063Y0073657D02*
X0088889Y0072483D01*
X0085267Y0076105D01*
X0086441Y0077279D01*
X0090063Y0073657D01*
G37*
G36*
X0091455Y0075049D02*
X0090281Y0073875D01*
X0086659Y0077497D01*
X0087833Y0078671D01*
X0091455Y0075049D01*
G37*
G36*
X0092847Y0076441D02*
X0091673Y0075267D01*
X0088051Y0078889D01*
X0089225Y0080063D01*
X0092847Y0076441D01*
G37*
G36*
X0094239Y0077833D02*
X0093065Y0076659D01*
X0089443Y0080281D01*
X0090617Y0081455D01*
X0094239Y0077833D01*
G37*
G36*
X0095631Y0079225D02*
X0094457Y0078051D01*
X0090835Y0081673D01*
X0092009Y0082847D01*
X0095631Y0079225D01*
G37*
G36*
X0097023Y0080617D02*
X0095849Y0079443D01*
X0092227Y0083065D01*
X0093401Y0084239D01*
X0097023Y0080617D01*
G37*
G36*
X0098415Y0082009D02*
X0097241Y0080835D01*
X0093619Y0084457D01*
X0094793Y0085631D01*
X0098415Y0082009D01*
G37*
G36*
X0099807Y0083401D02*
X0098633Y0082227D01*
X0095011Y0085849D01*
X0096185Y0087023D01*
X0099807Y0083401D01*
G37*
G36*
X0101199Y0084793D02*
X0100025Y0083619D01*
X0096403Y0087241D01*
X0097577Y0088415D01*
X0101199Y0084793D01*
G37*
G36*
X0102591Y0086185D02*
X0101417Y0085011D01*
X0097795Y0088633D01*
X0098969Y0089807D01*
X0102591Y0086185D01*
G37*
G36*
X0103983Y0087577D02*
X0102809Y0086403D01*
X0099187Y0090025D01*
X0100361Y0091199D01*
X0103983Y0087577D01*
G37*
G36*
X0105374Y0088969D02*
X0104200Y0087795D01*
X0100578Y0091417D01*
X0101752Y0092591D01*
X0105374Y0088969D01*
G37*
G36*
X0106766Y0090361D02*
X0105592Y0089187D01*
X0101970Y0092809D01*
X0103144Y0093983D01*
X0106766Y0090361D01*
G37*
G36*
X0108158Y0091753D02*
X0106984Y0090579D01*
X0103362Y0094201D01*
X0104536Y0095375D01*
X0108158Y0091753D01*
G37*
G36*
X0109550Y0093145D02*
X0108376Y0091971D01*
X0104754Y0095593D01*
X0105928Y0096767D01*
X0109550Y0093145D01*
G37*
G36*
X0110942Y0094537D02*
X0109768Y0093363D01*
X0106146Y0096985D01*
X0107320Y0098159D01*
X0110942Y0094537D01*
G37*
G36*
X0112334Y0095929D02*
X0111160Y0094755D01*
X0107538Y0098377D01*
X0108712Y0099551D01*
X0112334Y0095929D01*
G37*
G36*
X0113726Y0097321D02*
X0112552Y0096147D01*
X0108930Y0099769D01*
X0110104Y0100943D01*
X0113726Y0097321D01*
G37*
G36*
X0115118Y0098712D02*
X0113944Y0097538D01*
X0110322Y0101160D01*
X0111496Y0102334D01*
X0115118Y0098712D01*
G37*
G36*
X0158268Y0055562D02*
X0157094Y0054388D01*
X0153472Y0058010D01*
X0154646Y0059184D01*
X0158268Y0055562D01*
G37*
G36*
X0156876Y0054170D02*
X0155702Y0052996D01*
X0152080Y0056618D01*
X0153254Y0057792D01*
X0156876Y0054170D01*
G37*
G36*
X0155484Y0052778D02*
X0154310Y0051604D01*
X0150688Y0055226D01*
X0151862Y0056400D01*
X0155484Y0052778D01*
G37*
G36*
X0154092Y0051386D02*
X0152918Y0050212D01*
X0149296Y0053834D01*
X0150470Y0055008D01*
X0154092Y0051386D01*
G37*
G36*
X0152701Y0049994D02*
X0151527Y0048820D01*
X0147905Y0052442D01*
X0149079Y0053616D01*
X0152701Y0049994D01*
G37*
G36*
X0151309Y0048603D02*
X0150135Y0047429D01*
X0146513Y0051051D01*
X0147687Y0052225D01*
X0151309Y0048603D01*
G37*
G36*
X0149917Y0047211D02*
X0148743Y0046037D01*
X0145121Y0049659D01*
X0146295Y0050833D01*
X0149917Y0047211D01*
G37*
G36*
X0148525Y0045819D02*
X0147351Y0044645D01*
X0143729Y0048267D01*
X0144903Y0049441D01*
X0148525Y0045819D01*
G37*
G36*
X0147133Y0044427D02*
X0145959Y0043253D01*
X0142337Y0046875D01*
X0143511Y0048049D01*
X0147133Y0044427D01*
G37*
G36*
X0145741Y0043035D02*
X0144567Y0041861D01*
X0140945Y0045483D01*
X0142119Y0046657D01*
X0145741Y0043035D01*
G37*
G36*
X0144349Y0041643D02*
X0143175Y0040469D01*
X0139553Y0044091D01*
X0140727Y0045265D01*
X0144349Y0041643D01*
G37*
G36*
X0142957Y0040251D02*
X0141783Y0039077D01*
X0138161Y0042699D01*
X0139335Y0043873D01*
X0142957Y0040251D01*
G37*
G36*
X0141565Y0038859D02*
X0140391Y0037685D01*
X0136769Y0041307D01*
X0137943Y0042481D01*
X0141565Y0038859D01*
G37*
G36*
X0140173Y0037467D02*
X0138999Y0036293D01*
X0135377Y0039915D01*
X0136551Y0041089D01*
X0140173Y0037467D01*
G37*
G36*
X0138781Y0036075D02*
X0137607Y0034901D01*
X0133985Y0038523D01*
X0135159Y0039697D01*
X0138781Y0036075D01*
G37*
G36*
X0137389Y0034683D02*
X0136215Y0033509D01*
X0132593Y0037131D01*
X0133767Y0038305D01*
X0137389Y0034683D01*
G37*
G36*
X0135997Y0033291D02*
X0134823Y0032117D01*
X0131201Y0035739D01*
X0132375Y0036913D01*
X0135997Y0033291D01*
G37*
G36*
X0134605Y0031899D02*
X0133431Y0030725D01*
X0129809Y0034347D01*
X0130983Y0035521D01*
X0134605Y0031899D01*
G37*
G36*
X0133213Y0030507D02*
X0132039Y0029333D01*
X0128417Y0032955D01*
X0129591Y0034129D01*
X0133213Y0030507D01*
G37*
G36*
X0131821Y0029115D02*
X0130647Y0027941D01*
X0127025Y0031563D01*
X0128199Y0032737D01*
X0131821Y0029115D01*
G37*
G36*
X0130429Y0027723D02*
X0129255Y0026549D01*
X0125633Y0030171D01*
X0126807Y0031345D01*
X0130429Y0027723D01*
G37*
G36*
X0129037Y0026331D02*
X0127863Y0025157D01*
X0124241Y0028779D01*
X0125415Y0029953D01*
X0129037Y0026331D01*
G37*
G36*
X0127646Y0024939D02*
X0126472Y0023765D01*
X0122850Y0027387D01*
X0124024Y0028561D01*
X0127646Y0024939D01*
G37*
G36*
X0126254Y0023548D02*
X0125080Y0022374D01*
X0121458Y0025996D01*
X0122632Y0027170D01*
X0126254Y0023548D01*
G37*
G36*
X0124862Y0022156D02*
X0123688Y0020982D01*
X0120066Y0024604D01*
X0121240Y0025778D01*
X0124862Y0022156D01*
G37*
D17*
X0064836Y0021501D03*
X0064836Y0028981D03*
X0056175Y0025241D03*
D18*
X0014167Y0107760D03*
X0014167Y0117760D03*
X0024167Y0117760D03*
X0024167Y0127760D03*
X0014167Y0127760D03*
X0085702Y0124729D03*
X0095702Y0124729D03*
X0105702Y0124729D03*
X0115702Y0124729D03*
X0125702Y0124729D03*
X0135702Y0124729D03*
X0135702Y0114729D03*
X0125702Y0114729D03*
X0115702Y0114729D03*
X0105702Y0114729D03*
X0095702Y0114729D03*
X0085702Y0114729D03*
X0165584Y0037052D03*
X0175584Y0037052D03*
X0185584Y0037052D03*
X0195584Y0037052D03*
X0196332Y0051264D03*
X0196332Y0061264D03*
X0196332Y0071264D03*
X0196332Y0081264D03*
X0196332Y0091264D03*
X0196332Y0101264D03*
X0196332Y0111264D03*
X0196332Y0121264D03*
X0191411Y0133115D03*
X0191411Y0143115D03*
X0191411Y0153115D03*
X0191411Y0163115D03*
X0191411Y0173115D03*
X0191411Y0183115D03*
X0166804Y0170319D03*
X0166804Y0160319D03*
X0166804Y0150319D03*
X0166804Y0140319D03*
X0166804Y0130319D03*
X0166804Y0120319D03*
X0170820Y0023666D03*
X0180820Y0023666D03*
X0160820Y0023666D03*
X0150820Y0023666D03*
D19*
X0024167Y0107760D03*
M02*
