%
M48
M72
T01C0.01378
T02C0.01575
T03C0.01969
T04C0.03543
T05C0.04000
%
T01
X13261Y21304
X19167Y21304
X25072Y21304
X30978Y21304
X36883Y21304
X42789Y21304
X48694Y21304
X46726Y39020
X49678Y40989
X42789Y39020
X38852Y39020
X35899Y48863
X35899Y52800
X58537Y69532
X62474Y66579
X59521Y61658
X61883Y73272
X62474Y78390
X58537Y82721
X53615Y82721
X48694Y82524
X47710Y78390
X43773Y100044
X45741Y102997
X39836Y101028
X32946Y100044
X19167Y96107
X15230Y95123
X39049Y120123
X34915Y124256
X38852Y130949
X36883Y144335
X41804Y144335
X46726Y144335
X51647Y145319
X56568Y145319
X69757Y160477
X76647Y164020
X80190Y164020
X79797Y169335
X83537Y168548
X90033Y164020
X92001Y159099
X94954Y162052
X97907Y159099
X94954Y156146
X99875Y154178
X95938Y146304
X90033Y154178
X99875Y164020
X106568Y170123
X120545Y157130
X119560Y153193
X123497Y164020
X126844Y164020
X132356Y166973
X137277Y172879
X142198Y166973
X148104Y172879
X153025Y166973
X145151Y155162
X132356Y155162
X132356Y134493
X137277Y134493
X142198Y134493
X147119Y134493
X147119Y129571
X143182Y129571
X151056Y128587
X152041Y124650
X137277Y107918
X136293Y104375
X138261Y101028
X141214Y101028
X139245Y95123
X136293Y93154
X141214Y87249
X137080Y77012
X141017Y72879
X143182Y70123
X148104Y66382
X150466Y61067
X160899Y70516
X165820Y71501
X163852Y75438
X156962Y82327
X167789Y93154
X182552Y93154
X182552Y106934
X182552Y116776
X179600Y128587
X178615Y140398
X178615Y150241
X178615Y160083
X178615Y170910
X159915Y183705
X159915Y189611
X127434Y188627
X123497Y188627
X110702Y190595
X76253Y190595
X70348Y182721
X65427Y190595
X57159Y179965
X50269Y179965
X43379Y179965
X41804Y165989
X46726Y165989
X51647Y165989
X94364Y137249
X104797Y134493
X108734Y134493
X111686Y134493
X114639Y134493
X117592Y135477
X75269Y101028
X75269Y95123
X69364Y103981
X64442Y105949
X60505Y102012
X80190Y81343
X84127Y79375
X81175Y77406
X83537Y63036
X84127Y59690
X89049Y55753
X92986Y51816
X96923Y47879
X101844Y43941
X110505Y38036
X113064Y34099
X115623Y30162
X119560Y30359
X117986Y34296
X124482Y33115
X127041Y35674
X124482Y38036
X129403Y38430
X121529Y50831
X126450Y56737
X126450Y60674
X126450Y64611
X126450Y68548
X123497Y85280
X123497Y89217
X108734Y68548
X108734Y64611
X108734Y60674
X108734Y56737
X91804Y28981
X94167Y26422
X75269Y21304
X74285Y25241
X70348Y30162
X69364Y34690
X65427Y35083
X73301Y34099
X114639Y20713
X119560Y21304
X134915Y20910
X138852Y21304
X151056Y41973
X149088Y43941
X184521Y58705
X97907Y91186
X94954Y89217
T02
X126450Y167957
T03
X31568Y175831
X53615Y170910
X74285Y132524
X116608Y161067
X42789Y78390
X17198Y78390
T04
X32946Y40201
X32946Y57524
X32356Y146501
X32356Y163823
T05
X14167Y127760
X14167Y117760
X14167Y107760
X24167Y107760
X24167Y117760
X24167Y127760
X85702Y124729
X95702Y124729
X105702Y124729
X115702Y124729
X125702Y124729
X135702Y124729
X135702Y114729
X125702Y114729
X115702Y114729
X105702Y114729
X95702Y114729
X85702Y114729
X165584Y37052
X175584Y37052
X185584Y37052
X195584Y37052
X196332Y51264
X196332Y61264
X196332Y71264
X196332Y81264
X196332Y91264
X196332Y101264
X196332Y111264
X196332Y121264
X191411Y133115
X191411Y143115
X191411Y153115
X191411Y163115
X191411Y173115
X191411Y183115
X166804Y170319
X166804Y160319
X166804Y150319
X166804Y140319
X166804Y130319
X166804Y120319
X170820Y23666
X180820Y23666
X160820Y23666
X150820Y23666
M30
