G75*
%MOIN*%
%OFA0B0*%
%FSLAX25Y25*%
%IPPOS*%
%LPD*%
%AMOC8*
5,1,8,0,0,1.08239X$1,22.5*
%
%ADD10C,0.00000*%
%ADD11R,0.04731X0.04337*%
%ADD12R,0.09061X0.06699*%
%ADD13R,0.04337X0.04731*%
%ADD14R,0.06699X0.09061*%
%ADD15C,0.05943*%
%ADD16R,0.10243X0.02369*%
%ADD17R,0.15400X0.08000*%
%ADD18R,0.04337X0.03550*%
%ADD19R,0.03550X0.04337*%
%ADD20R,0.09200X0.05200*%
%ADD21R,0.09061X0.14573*%
%ADD22R,0.01384X0.01384*%
%ADD23R,0.13780X0.13780*%
%ADD24R,0.01378X0.02953*%
%ADD25R,0.02953X0.01378*%
%ADD26R,0.03550X0.03550*%
%ADD27R,0.04731X0.07880*%
%ADD28R,0.08274X0.06699*%
%ADD29R,0.04337X0.05912*%
%ADD30OC8,0.06400*%
%ADD31R,0.05518X0.04534*%
%ADD32C,0.06400*%
D10*
X0008340Y0016382D02*
X0008340Y0193548D01*
X0205190Y0193548D01*
X0205190Y0016382D01*
X0008340Y0016382D01*
D11*
X0019167Y0084296D03*
X0019167Y0090989D03*
X0038419Y0105792D03*
X0038419Y0112485D03*
X0064639Y0147879D03*
X0064639Y0154571D03*
X0065427Y0160674D03*
X0065427Y0167367D03*
X0074285Y0168548D03*
X0074285Y0175241D03*
X0083734Y0183508D03*
X0083734Y0190201D03*
X0106175Y0190201D03*
X0106175Y0183508D03*
X0110702Y0177012D03*
X0110702Y0170319D03*
X0111883Y0160477D03*
X0111883Y0153784D03*
X0073301Y0154571D03*
X0073301Y0147879D03*
X0029993Y0181343D03*
X0029993Y0188036D03*
X0021923Y0188036D03*
X0021923Y0181343D03*
X0013852Y0181343D03*
X0013852Y0188036D03*
X0145151Y0104375D03*
X0145151Y0097682D03*
D12*
X0067395Y0097682D03*
X0067395Y0086658D03*
D13*
G36*
X0088229Y0074030D02*
X0085163Y0070964D01*
X0081819Y0074308D01*
X0084885Y0077374D01*
X0088229Y0074030D01*
G37*
G36*
X0083497Y0069297D02*
X0080431Y0066231D01*
X0077087Y0069575D01*
X0080153Y0072641D01*
X0083497Y0069297D01*
G37*
G36*
X0072875Y0066699D02*
X0069809Y0063633D01*
X0066465Y0066977D01*
X0069531Y0070043D01*
X0072875Y0066699D01*
G37*
G36*
X0068142Y0061966D02*
X0065076Y0058900D01*
X0061732Y0062244D01*
X0064798Y0065310D01*
X0068142Y0061966D01*
G37*
G36*
X0065514Y0048941D02*
X0062448Y0052007D01*
X0065792Y0055351D01*
X0068858Y0052285D01*
X0065514Y0048941D01*
G37*
G36*
X0070247Y0044208D02*
X0067181Y0047274D01*
X0070525Y0050618D01*
X0073591Y0047552D01*
X0070247Y0044208D01*
G37*
G36*
X0079349Y0038805D02*
X0076283Y0035739D01*
X0072939Y0039083D01*
X0076005Y0042149D01*
X0079349Y0038805D01*
G37*
G36*
X0084081Y0043538D02*
X0081015Y0040472D01*
X0077671Y0043816D01*
X0080737Y0046882D01*
X0084081Y0043538D01*
G37*
G36*
X0090665Y0037334D02*
X0087599Y0034268D01*
X0084255Y0037612D01*
X0087321Y0040678D01*
X0090665Y0037334D01*
G37*
G36*
X0085932Y0032602D02*
X0082866Y0029536D01*
X0079522Y0032880D01*
X0082588Y0035946D01*
X0085932Y0032602D01*
G37*
X0123891Y0104375D03*
X0130584Y0104375D03*
X0124875Y0173863D03*
X0118182Y0173863D03*
X0090427Y0176816D03*
X0083734Y0176816D03*
X0057946Y0160083D03*
X0051253Y0160083D03*
X0051253Y0151225D03*
X0057946Y0151225D03*
D14*
X0056332Y0138508D03*
X0067356Y0138508D03*
D15*
X0032356Y0146501D03*
X0032356Y0163823D03*
X0032946Y0057524D03*
X0032946Y0040201D03*
D16*
X0042789Y0042564D03*
X0042789Y0045713D03*
X0042789Y0048863D03*
X0042789Y0052012D03*
X0042789Y0055162D03*
X0042198Y0148863D03*
X0042198Y0152012D03*
X0042198Y0155162D03*
X0042198Y0158312D03*
X0042198Y0161461D03*
D17*
X0042198Y0172879D03*
X0020545Y0172879D03*
X0042198Y0137839D03*
X0020545Y0137445D03*
X0021135Y0066579D03*
X0042789Y0066579D03*
X0042789Y0031540D03*
X0021135Y0031146D03*
D18*
X0020938Y0074453D03*
X0031175Y0074453D03*
D19*
X0012080Y0074453D03*
X0012080Y0084690D03*
D20*
X0047124Y0109881D03*
X0047124Y0118981D03*
X0047124Y0128081D03*
X0054989Y0096349D03*
X0054989Y0087249D03*
X0054989Y0078149D03*
D21*
X0030588Y0087249D03*
X0071525Y0118981D03*
D22*
X0104462Y0168607D03*
D23*
X0094954Y0159099D03*
D24*
X0093970Y0168351D03*
X0095938Y0168351D03*
X0097907Y0168351D03*
X0099875Y0168351D03*
X0101844Y0168351D03*
X0092001Y0168351D03*
X0090033Y0168351D03*
X0088064Y0168351D03*
X0088064Y0149847D03*
X0090033Y0149847D03*
X0092001Y0149847D03*
X0093970Y0149847D03*
X0095938Y0149847D03*
X0097907Y0149847D03*
X0099875Y0149847D03*
X0101844Y0149847D03*
D25*
X0104206Y0152209D03*
X0104206Y0154178D03*
X0104206Y0156146D03*
X0104206Y0158115D03*
X0104206Y0160083D03*
X0104206Y0162052D03*
X0104206Y0164020D03*
X0104206Y0165989D03*
X0085702Y0165989D03*
X0085702Y0164020D03*
X0085702Y0162052D03*
X0085702Y0160083D03*
X0085702Y0158115D03*
X0085702Y0156146D03*
X0085702Y0154178D03*
X0085702Y0152209D03*
D26*
X0053615Y0182721D03*
X0053615Y0188627D03*
X0046726Y0188627D03*
X0046726Y0182721D03*
X0039836Y0182721D03*
X0039836Y0188627D03*
X0145151Y0092170D03*
X0145151Y0086264D03*
D27*
G36*
X0093930Y0046192D02*
X0097275Y0042847D01*
X0091704Y0037276D01*
X0088359Y0040621D01*
X0093930Y0046192D01*
G37*
G36*
X0086970Y0053152D02*
X0090315Y0049807D01*
X0084744Y0044236D01*
X0081399Y0047581D01*
X0086970Y0053152D01*
G37*
D28*
X0116804Y0185674D03*
X0138064Y0185674D03*
X0149285Y0185674D03*
X0170545Y0185674D03*
D29*
X0084875Y0137760D03*
X0077395Y0137760D03*
X0081135Y0146422D03*
D30*
X0085702Y0124729D03*
X0095702Y0124729D03*
X0105702Y0124729D03*
X0115702Y0124729D03*
X0125702Y0124729D03*
X0135702Y0124729D03*
X0135702Y0114729D03*
X0125702Y0114729D03*
X0115702Y0114729D03*
X0105702Y0114729D03*
X0095702Y0114729D03*
X0085702Y0114729D03*
X0024167Y0117760D03*
X0014167Y0117760D03*
X0014167Y0107760D03*
X0014167Y0127760D03*
X0024167Y0127760D03*
X0150820Y0023666D03*
X0160820Y0023666D03*
X0170820Y0023666D03*
X0180820Y0023666D03*
X0185584Y0037052D03*
X0195584Y0037052D03*
X0196332Y0051264D03*
X0196332Y0061264D03*
X0196332Y0071264D03*
X0196332Y0081264D03*
X0196332Y0091264D03*
X0196332Y0101264D03*
X0196332Y0111264D03*
X0196332Y0121264D03*
X0191411Y0133115D03*
X0191411Y0143115D03*
X0191411Y0153115D03*
X0191411Y0163115D03*
X0191411Y0173115D03*
X0191411Y0183115D03*
X0166804Y0170319D03*
X0166804Y0160319D03*
X0166804Y0150319D03*
X0166804Y0140319D03*
X0166804Y0130319D03*
X0166804Y0120319D03*
X0165584Y0037052D03*
X0175584Y0037052D03*
D31*
G36*
X0080838Y0059524D02*
X0084738Y0055624D01*
X0081532Y0052418D01*
X0077632Y0056318D01*
X0080838Y0059524D01*
G37*
G36*
X0074435Y0065927D02*
X0078335Y0062027D01*
X0075129Y0058821D01*
X0071229Y0062721D01*
X0074435Y0065927D01*
G37*
G36*
X0069285Y0060777D02*
X0073185Y0056877D01*
X0069979Y0053671D01*
X0066079Y0057571D01*
X0069285Y0060777D01*
G37*
G36*
X0075688Y0054374D02*
X0079588Y0050474D01*
X0076382Y0047268D01*
X0072482Y0051168D01*
X0075688Y0054374D01*
G37*
X0090427Y0183016D03*
X0090427Y0190300D03*
X0099482Y0190300D03*
X0099482Y0183016D03*
D32*
X0024167Y0107760D03*
M02*
