G75*
%MOIN*%
%OFA0B0*%
%FSLAX25Y25*%
%IPPOS*%
%LPD*%
%AMOC8*
5,1,8,0,0,1.08239X$1,22.5*
%
%ADD10C,0.00000*%
%ADD11R,0.03937X0.04331*%
%ADD12R,0.04331X0.03937*%
%ADD13R,0.06299X0.08661*%
%ADD14R,0.04724X0.01260*%
%ADD15R,0.01260X0.04724*%
%ADD16R,0.05512X0.03937*%
D10*
X0008340Y0016382D02*
X0008340Y0193548D01*
X0205190Y0193548D01*
X0205190Y0016382D01*
X0008340Y0016382D01*
D11*
X0054600Y0037052D03*
X0061293Y0037052D03*
X0060899Y0045910D03*
X0054206Y0045910D03*
X0054206Y0054768D03*
X0060899Y0054768D03*
G36*
X0092347Y0037222D02*
X0095130Y0034439D01*
X0092069Y0031378D01*
X0089286Y0034161D01*
X0092347Y0037222D01*
G37*
G36*
X0097080Y0032489D02*
X0099863Y0029706D01*
X0096802Y0026645D01*
X0094019Y0029428D01*
X0097080Y0032489D01*
G37*
G36*
X0105740Y0025514D02*
X0102957Y0022731D01*
X0099896Y0025792D01*
X0102679Y0028575D01*
X0105740Y0025514D01*
G37*
G36*
X0101008Y0020781D02*
X0098225Y0017998D01*
X0095164Y0021059D01*
X0097947Y0023842D01*
X0101008Y0020781D01*
G37*
G36*
X0126765Y0021178D02*
X0129548Y0023961D01*
X0132609Y0020900D01*
X0129826Y0018117D01*
X0126765Y0021178D01*
G37*
G36*
X0131498Y0025911D02*
X0134281Y0028694D01*
X0137342Y0025633D01*
X0134559Y0022850D01*
X0131498Y0025911D01*
G37*
G36*
X0157692Y0070845D02*
X0154909Y0073628D01*
X0157970Y0076689D01*
X0160753Y0073906D01*
X0157692Y0070845D01*
G37*
G36*
X0152959Y0075578D02*
X0150176Y0078361D01*
X0153237Y0081422D01*
X0156020Y0078639D01*
X0152959Y0075578D01*
G37*
G36*
X0134358Y0094334D02*
X0131575Y0097117D01*
X0134636Y0100178D01*
X0137419Y0097395D01*
X0134358Y0094334D01*
G37*
G36*
X0129626Y0099066D02*
X0126843Y0101849D01*
X0129904Y0104910D01*
X0132687Y0102127D01*
X0129626Y0099066D01*
G37*
D12*
X0146135Y0105556D03*
X0146135Y0112249D03*
X0146135Y0118351D03*
X0146135Y0125044D03*
X0068379Y0059690D03*
X0068379Y0052997D03*
X0068379Y0047485D03*
X0068379Y0040792D03*
D13*
G36*
X0081156Y0036697D02*
X0085609Y0032244D01*
X0079486Y0026121D01*
X0075033Y0030574D01*
X0081156Y0036697D01*
G37*
G36*
X0088951Y0028902D02*
X0093404Y0024449D01*
X0087281Y0018326D01*
X0082828Y0022779D01*
X0088951Y0028902D01*
G37*
D14*
G36*
X0099524Y0039915D02*
X0096185Y0036576D01*
X0095294Y0037467D01*
X0098633Y0040806D01*
X0099524Y0039915D01*
G37*
G36*
X0100916Y0038523D02*
X0097577Y0035184D01*
X0096686Y0036075D01*
X0100025Y0039414D01*
X0100916Y0038523D01*
G37*
G36*
X0102308Y0037131D02*
X0098969Y0033792D01*
X0098078Y0034683D01*
X0101417Y0038022D01*
X0102308Y0037131D01*
G37*
G36*
X0103700Y0035739D02*
X0100361Y0032400D01*
X0099470Y0033291D01*
X0102809Y0036630D01*
X0103700Y0035739D01*
G37*
G36*
X0105091Y0034347D02*
X0101752Y0031008D01*
X0100861Y0031899D01*
X0104200Y0035238D01*
X0105091Y0034347D01*
G37*
G36*
X0106483Y0032955D02*
X0103144Y0029616D01*
X0102253Y0030507D01*
X0105592Y0033846D01*
X0106483Y0032955D01*
G37*
G36*
X0107875Y0031563D02*
X0104536Y0028224D01*
X0103645Y0029115D01*
X0106984Y0032454D01*
X0107875Y0031563D01*
G37*
G36*
X0109267Y0030171D02*
X0105928Y0026832D01*
X0105037Y0027723D01*
X0108376Y0031062D01*
X0109267Y0030171D01*
G37*
G36*
X0110659Y0028779D02*
X0107320Y0025440D01*
X0106429Y0026331D01*
X0109768Y0029670D01*
X0110659Y0028779D01*
G37*
G36*
X0112051Y0027387D02*
X0108712Y0024048D01*
X0107821Y0024939D01*
X0111160Y0028278D01*
X0112051Y0027387D01*
G37*
G36*
X0113443Y0025996D02*
X0110104Y0022657D01*
X0109213Y0023548D01*
X0112552Y0026887D01*
X0113443Y0025996D01*
G37*
G36*
X0114835Y0024604D02*
X0111496Y0021265D01*
X0110605Y0022156D01*
X0113944Y0025495D01*
X0114835Y0024604D01*
G37*
G36*
X0098132Y0041307D02*
X0094793Y0037968D01*
X0093902Y0038859D01*
X0097241Y0042198D01*
X0098132Y0041307D01*
G37*
G36*
X0096740Y0042699D02*
X0093401Y0039360D01*
X0092510Y0040251D01*
X0095849Y0043590D01*
X0096740Y0042699D01*
G37*
G36*
X0095348Y0044091D02*
X0092009Y0040752D01*
X0091118Y0041643D01*
X0094457Y0044982D01*
X0095348Y0044091D01*
G37*
G36*
X0093956Y0045483D02*
X0090617Y0042144D01*
X0089726Y0043035D01*
X0093065Y0046374D01*
X0093956Y0045483D01*
G37*
G36*
X0092564Y0046875D02*
X0089225Y0043536D01*
X0088334Y0044427D01*
X0091673Y0047766D01*
X0092564Y0046875D01*
G37*
G36*
X0091172Y0048267D02*
X0087833Y0044928D01*
X0086942Y0045819D01*
X0090281Y0049158D01*
X0091172Y0048267D01*
G37*
G36*
X0089780Y0049659D02*
X0086441Y0046320D01*
X0085550Y0047211D01*
X0088889Y0050550D01*
X0089780Y0049659D01*
G37*
G36*
X0088388Y0051051D02*
X0085049Y0047712D01*
X0084158Y0048603D01*
X0087497Y0051942D01*
X0088388Y0051051D01*
G37*
G36*
X0086996Y0052442D02*
X0083657Y0049103D01*
X0082766Y0049994D01*
X0086105Y0053333D01*
X0086996Y0052442D01*
G37*
G36*
X0085604Y0053834D02*
X0082265Y0050495D01*
X0081374Y0051386D01*
X0084713Y0054725D01*
X0085604Y0053834D01*
G37*
G36*
X0084212Y0055226D02*
X0080873Y0051887D01*
X0079982Y0052778D01*
X0083321Y0056117D01*
X0084212Y0055226D01*
G37*
G36*
X0082820Y0056618D02*
X0079481Y0053279D01*
X0078590Y0054170D01*
X0081929Y0057509D01*
X0082820Y0056618D01*
G37*
G36*
X0081428Y0058010D02*
X0078089Y0054671D01*
X0077198Y0055562D01*
X0080537Y0058901D01*
X0081428Y0058010D01*
G37*
G36*
X0124579Y0101160D02*
X0121240Y0097821D01*
X0120349Y0098712D01*
X0123688Y0102051D01*
X0124579Y0101160D01*
G37*
G36*
X0125971Y0099769D02*
X0122632Y0096430D01*
X0121741Y0097321D01*
X0125080Y0100660D01*
X0125971Y0099769D01*
G37*
G36*
X0127363Y0098377D02*
X0124024Y0095038D01*
X0123133Y0095929D01*
X0126472Y0099268D01*
X0127363Y0098377D01*
G37*
G36*
X0128754Y0096985D02*
X0125415Y0093646D01*
X0124524Y0094537D01*
X0127863Y0097876D01*
X0128754Y0096985D01*
G37*
G36*
X0130146Y0095593D02*
X0126807Y0092254D01*
X0125916Y0093145D01*
X0129255Y0096484D01*
X0130146Y0095593D01*
G37*
G36*
X0131538Y0094201D02*
X0128199Y0090862D01*
X0127308Y0091753D01*
X0130647Y0095092D01*
X0131538Y0094201D01*
G37*
G36*
X0132930Y0092809D02*
X0129591Y0089470D01*
X0128700Y0090361D01*
X0132039Y0093700D01*
X0132930Y0092809D01*
G37*
G36*
X0134322Y0091417D02*
X0130983Y0088078D01*
X0130092Y0088969D01*
X0133431Y0092308D01*
X0134322Y0091417D01*
G37*
G36*
X0135714Y0090025D02*
X0132375Y0086686D01*
X0131484Y0087577D01*
X0134823Y0090916D01*
X0135714Y0090025D01*
G37*
G36*
X0137106Y0088633D02*
X0133767Y0085294D01*
X0132876Y0086185D01*
X0136215Y0089524D01*
X0137106Y0088633D01*
G37*
G36*
X0138498Y0087241D02*
X0135159Y0083902D01*
X0134268Y0084793D01*
X0137607Y0088132D01*
X0138498Y0087241D01*
G37*
G36*
X0139890Y0085849D02*
X0136551Y0082510D01*
X0135660Y0083401D01*
X0138999Y0086740D01*
X0139890Y0085849D01*
G37*
G36*
X0141282Y0084457D02*
X0137943Y0081118D01*
X0137052Y0082009D01*
X0140391Y0085348D01*
X0141282Y0084457D01*
G37*
G36*
X0142674Y0083065D02*
X0139335Y0079726D01*
X0138444Y0080617D01*
X0141783Y0083956D01*
X0142674Y0083065D01*
G37*
G36*
X0144066Y0081673D02*
X0140727Y0078334D01*
X0139836Y0079225D01*
X0143175Y0082564D01*
X0144066Y0081673D01*
G37*
G36*
X0145458Y0080281D02*
X0142119Y0076942D01*
X0141228Y0077833D01*
X0144567Y0081172D01*
X0145458Y0080281D01*
G37*
G36*
X0146850Y0078889D02*
X0143511Y0075550D01*
X0142620Y0076441D01*
X0145959Y0079780D01*
X0146850Y0078889D01*
G37*
G36*
X0148242Y0077497D02*
X0144903Y0074158D01*
X0144012Y0075049D01*
X0147351Y0078388D01*
X0148242Y0077497D01*
G37*
G36*
X0149634Y0076105D02*
X0146295Y0072766D01*
X0145404Y0073657D01*
X0148743Y0076996D01*
X0149634Y0076105D01*
G37*
G36*
X0151026Y0074714D02*
X0147687Y0071375D01*
X0146796Y0072266D01*
X0150135Y0075605D01*
X0151026Y0074714D01*
G37*
G36*
X0152418Y0073322D02*
X0149079Y0069983D01*
X0148188Y0070874D01*
X0151527Y0074213D01*
X0152418Y0073322D01*
G37*
G36*
X0153809Y0071930D02*
X0150470Y0068591D01*
X0149579Y0069482D01*
X0152918Y0072821D01*
X0153809Y0071930D01*
G37*
G36*
X0155201Y0070538D02*
X0151862Y0067199D01*
X0150971Y0068090D01*
X0154310Y0071429D01*
X0155201Y0070538D01*
G37*
G36*
X0156593Y0069146D02*
X0153254Y0065807D01*
X0152363Y0066698D01*
X0155702Y0070037D01*
X0156593Y0069146D01*
G37*
G36*
X0157985Y0067754D02*
X0154646Y0064415D01*
X0153755Y0065306D01*
X0157094Y0068645D01*
X0157985Y0067754D01*
G37*
D15*
G36*
X0157985Y0055562D02*
X0157094Y0054671D01*
X0153755Y0058010D01*
X0154646Y0058901D01*
X0157985Y0055562D01*
G37*
G36*
X0156593Y0054170D02*
X0155702Y0053279D01*
X0152363Y0056618D01*
X0153254Y0057509D01*
X0156593Y0054170D01*
G37*
G36*
X0155201Y0052778D02*
X0154310Y0051887D01*
X0150971Y0055226D01*
X0151862Y0056117D01*
X0155201Y0052778D01*
G37*
G36*
X0153809Y0051386D02*
X0152918Y0050495D01*
X0149579Y0053834D01*
X0150470Y0054725D01*
X0153809Y0051386D01*
G37*
G36*
X0152418Y0049994D02*
X0151527Y0049103D01*
X0148188Y0052442D01*
X0149079Y0053333D01*
X0152418Y0049994D01*
G37*
G36*
X0151026Y0048603D02*
X0150135Y0047712D01*
X0146796Y0051051D01*
X0147687Y0051942D01*
X0151026Y0048603D01*
G37*
G36*
X0149634Y0047211D02*
X0148743Y0046320D01*
X0145404Y0049659D01*
X0146295Y0050550D01*
X0149634Y0047211D01*
G37*
G36*
X0148242Y0045819D02*
X0147351Y0044928D01*
X0144012Y0048267D01*
X0144903Y0049158D01*
X0148242Y0045819D01*
G37*
G36*
X0146850Y0044427D02*
X0145959Y0043536D01*
X0142620Y0046875D01*
X0143511Y0047766D01*
X0146850Y0044427D01*
G37*
G36*
X0145458Y0043035D02*
X0144567Y0042144D01*
X0141228Y0045483D01*
X0142119Y0046374D01*
X0145458Y0043035D01*
G37*
G36*
X0144066Y0041643D02*
X0143175Y0040752D01*
X0139836Y0044091D01*
X0140727Y0044982D01*
X0144066Y0041643D01*
G37*
G36*
X0142674Y0040251D02*
X0141783Y0039360D01*
X0138444Y0042699D01*
X0139335Y0043590D01*
X0142674Y0040251D01*
G37*
G36*
X0141282Y0038859D02*
X0140391Y0037968D01*
X0137052Y0041307D01*
X0137943Y0042198D01*
X0141282Y0038859D01*
G37*
G36*
X0139890Y0037467D02*
X0138999Y0036576D01*
X0135660Y0039915D01*
X0136551Y0040806D01*
X0139890Y0037467D01*
G37*
G36*
X0138498Y0036075D02*
X0137607Y0035184D01*
X0134268Y0038523D01*
X0135159Y0039414D01*
X0138498Y0036075D01*
G37*
G36*
X0137106Y0034683D02*
X0136215Y0033792D01*
X0132876Y0037131D01*
X0133767Y0038022D01*
X0137106Y0034683D01*
G37*
G36*
X0135714Y0033291D02*
X0134823Y0032400D01*
X0131484Y0035739D01*
X0132375Y0036630D01*
X0135714Y0033291D01*
G37*
G36*
X0134322Y0031899D02*
X0133431Y0031008D01*
X0130092Y0034347D01*
X0130983Y0035238D01*
X0134322Y0031899D01*
G37*
G36*
X0132930Y0030507D02*
X0132039Y0029616D01*
X0128700Y0032955D01*
X0129591Y0033846D01*
X0132930Y0030507D01*
G37*
G36*
X0131538Y0029115D02*
X0130647Y0028224D01*
X0127308Y0031563D01*
X0128199Y0032454D01*
X0131538Y0029115D01*
G37*
G36*
X0130146Y0027723D02*
X0129255Y0026832D01*
X0125916Y0030171D01*
X0126807Y0031062D01*
X0130146Y0027723D01*
G37*
G36*
X0128754Y0026331D02*
X0127863Y0025440D01*
X0124524Y0028779D01*
X0125415Y0029670D01*
X0128754Y0026331D01*
G37*
G36*
X0127363Y0024939D02*
X0126472Y0024048D01*
X0123133Y0027387D01*
X0124024Y0028278D01*
X0127363Y0024939D01*
G37*
G36*
X0125971Y0023548D02*
X0125080Y0022657D01*
X0121741Y0025996D01*
X0122632Y0026887D01*
X0125971Y0023548D01*
G37*
G36*
X0124579Y0022156D02*
X0123688Y0021265D01*
X0120349Y0024604D01*
X0121240Y0025495D01*
X0124579Y0022156D01*
G37*
G36*
X0081428Y0065306D02*
X0080537Y0064415D01*
X0077198Y0067754D01*
X0078089Y0068645D01*
X0081428Y0065306D01*
G37*
G36*
X0082820Y0066698D02*
X0081929Y0065807D01*
X0078590Y0069146D01*
X0079481Y0070037D01*
X0082820Y0066698D01*
G37*
G36*
X0084212Y0068090D02*
X0083321Y0067199D01*
X0079982Y0070538D01*
X0080873Y0071429D01*
X0084212Y0068090D01*
G37*
G36*
X0085604Y0069482D02*
X0084713Y0068591D01*
X0081374Y0071930D01*
X0082265Y0072821D01*
X0085604Y0069482D01*
G37*
G36*
X0086996Y0070874D02*
X0086105Y0069983D01*
X0082766Y0073322D01*
X0083657Y0074213D01*
X0086996Y0070874D01*
G37*
G36*
X0088388Y0072266D02*
X0087497Y0071375D01*
X0084158Y0074714D01*
X0085049Y0075605D01*
X0088388Y0072266D01*
G37*
G36*
X0089780Y0073657D02*
X0088889Y0072766D01*
X0085550Y0076105D01*
X0086441Y0076996D01*
X0089780Y0073657D01*
G37*
G36*
X0091172Y0075049D02*
X0090281Y0074158D01*
X0086942Y0077497D01*
X0087833Y0078388D01*
X0091172Y0075049D01*
G37*
G36*
X0092564Y0076441D02*
X0091673Y0075550D01*
X0088334Y0078889D01*
X0089225Y0079780D01*
X0092564Y0076441D01*
G37*
G36*
X0093956Y0077833D02*
X0093065Y0076942D01*
X0089726Y0080281D01*
X0090617Y0081172D01*
X0093956Y0077833D01*
G37*
G36*
X0095348Y0079225D02*
X0094457Y0078334D01*
X0091118Y0081673D01*
X0092009Y0082564D01*
X0095348Y0079225D01*
G37*
G36*
X0096740Y0080617D02*
X0095849Y0079726D01*
X0092510Y0083065D01*
X0093401Y0083956D01*
X0096740Y0080617D01*
G37*
G36*
X0098132Y0082009D02*
X0097241Y0081118D01*
X0093902Y0084457D01*
X0094793Y0085348D01*
X0098132Y0082009D01*
G37*
G36*
X0099524Y0083401D02*
X0098633Y0082510D01*
X0095294Y0085849D01*
X0096185Y0086740D01*
X0099524Y0083401D01*
G37*
G36*
X0100916Y0084793D02*
X0100025Y0083902D01*
X0096686Y0087241D01*
X0097577Y0088132D01*
X0100916Y0084793D01*
G37*
G36*
X0102308Y0086185D02*
X0101417Y0085294D01*
X0098078Y0088633D01*
X0098969Y0089524D01*
X0102308Y0086185D01*
G37*
G36*
X0103700Y0087577D02*
X0102809Y0086686D01*
X0099470Y0090025D01*
X0100361Y0090916D01*
X0103700Y0087577D01*
G37*
G36*
X0105091Y0088969D02*
X0104200Y0088078D01*
X0100861Y0091417D01*
X0101752Y0092308D01*
X0105091Y0088969D01*
G37*
G36*
X0106483Y0090361D02*
X0105592Y0089470D01*
X0102253Y0092809D01*
X0103144Y0093700D01*
X0106483Y0090361D01*
G37*
G36*
X0107875Y0091753D02*
X0106984Y0090862D01*
X0103645Y0094201D01*
X0104536Y0095092D01*
X0107875Y0091753D01*
G37*
G36*
X0109267Y0093145D02*
X0108376Y0092254D01*
X0105037Y0095593D01*
X0105928Y0096484D01*
X0109267Y0093145D01*
G37*
G36*
X0110659Y0094537D02*
X0109768Y0093646D01*
X0106429Y0096985D01*
X0107320Y0097876D01*
X0110659Y0094537D01*
G37*
G36*
X0112051Y0095929D02*
X0111160Y0095038D01*
X0107821Y0098377D01*
X0108712Y0099268D01*
X0112051Y0095929D01*
G37*
G36*
X0113443Y0097321D02*
X0112552Y0096430D01*
X0109213Y0099769D01*
X0110104Y0100660D01*
X0113443Y0097321D01*
G37*
G36*
X0114835Y0098712D02*
X0113944Y0097821D01*
X0110605Y0101160D01*
X0111496Y0102051D01*
X0114835Y0098712D01*
G37*
D16*
X0064836Y0028981D03*
X0064836Y0021501D03*
X0056175Y0025241D03*
M02*
