G75*
%MOIN*%
%OFA0B0*%
%FSLAX25Y25*%
%IPPOS*%
%LPD*%
%AMOC8*
5,1,8,0,0,1.08239X$1,22.5*
%
%ADD10C,0.00000*%
%ADD11C,0.01000*%
%ADD12R,0.01000X0.01200*%
%ADD13R,0.01200X0.01000*%
%ADD14C,0.00600*%
%ADD15C,0.00500*%
D10*
X0008340Y0016382D02*
X0008340Y0193548D01*
X0205190Y0193548D01*
X0205190Y0016382D01*
X0008340Y0016382D01*
D11*
X0075806Y0028007D02*
X0082946Y0020866D01*
X0081390Y0022562D02*
X0089168Y0030340D01*
X0090864Y0028784D02*
X0083723Y0035924D01*
X0079269Y0061658D02*
X0115896Y0025030D01*
X0119287Y0025030D01*
X0155915Y0061658D01*
X0117592Y0099981D01*
X0079269Y0061658D01*
X0115912Y0027555D02*
X0115914Y0027617D01*
X0115920Y0027680D01*
X0115930Y0027741D01*
X0115944Y0027802D01*
X0115961Y0027862D01*
X0115982Y0027921D01*
X0116008Y0027978D01*
X0116036Y0028033D01*
X0116068Y0028087D01*
X0116104Y0028138D01*
X0116142Y0028188D01*
X0116184Y0028234D01*
X0116228Y0028278D01*
X0116276Y0028319D01*
X0116325Y0028357D01*
X0116377Y0028391D01*
X0116431Y0028422D01*
X0116487Y0028450D01*
X0116545Y0028474D01*
X0116604Y0028495D01*
X0116664Y0028511D01*
X0116725Y0028524D01*
X0116787Y0028533D01*
X0116849Y0028538D01*
X0116912Y0028539D01*
X0116974Y0028536D01*
X0117036Y0028529D01*
X0117098Y0028518D01*
X0117158Y0028503D01*
X0117218Y0028485D01*
X0117276Y0028463D01*
X0117333Y0028437D01*
X0117388Y0028407D01*
X0117441Y0028374D01*
X0117492Y0028338D01*
X0117540Y0028299D01*
X0117586Y0028256D01*
X0117629Y0028211D01*
X0117669Y0028163D01*
X0117706Y0028113D01*
X0117740Y0028060D01*
X0117771Y0028006D01*
X0117797Y0027950D01*
X0117821Y0027892D01*
X0117840Y0027832D01*
X0117856Y0027772D01*
X0117868Y0027710D01*
X0117876Y0027649D01*
X0117880Y0027586D01*
X0117880Y0027524D01*
X0117876Y0027461D01*
X0117868Y0027400D01*
X0117856Y0027338D01*
X0117840Y0027278D01*
X0117821Y0027218D01*
X0117797Y0027160D01*
X0117771Y0027104D01*
X0117740Y0027050D01*
X0117706Y0026997D01*
X0117669Y0026947D01*
X0117629Y0026899D01*
X0117586Y0026854D01*
X0117540Y0026811D01*
X0117492Y0026772D01*
X0117441Y0026736D01*
X0117388Y0026703D01*
X0117333Y0026673D01*
X0117276Y0026647D01*
X0117218Y0026625D01*
X0117158Y0026607D01*
X0117098Y0026592D01*
X0117036Y0026581D01*
X0116974Y0026574D01*
X0116912Y0026571D01*
X0116849Y0026572D01*
X0116787Y0026577D01*
X0116725Y0026586D01*
X0116664Y0026599D01*
X0116604Y0026615D01*
X0116545Y0026636D01*
X0116487Y0026660D01*
X0116431Y0026688D01*
X0116377Y0026719D01*
X0116325Y0026753D01*
X0116276Y0026791D01*
X0116228Y0026832D01*
X0116184Y0026876D01*
X0116142Y0026922D01*
X0116104Y0026972D01*
X0116068Y0027023D01*
X0116036Y0027077D01*
X0116008Y0027132D01*
X0115982Y0027189D01*
X0115961Y0027248D01*
X0115944Y0027308D01*
X0115930Y0027369D01*
X0115920Y0027430D01*
X0115914Y0027493D01*
X0115912Y0027555D01*
D12*
G36*
X0115618Y0025431D02*
X0114911Y0024724D01*
X0114064Y0025571D01*
X0114771Y0026278D01*
X0115618Y0025431D01*
G37*
G36*
X0114226Y0026823D02*
X0113519Y0026116D01*
X0112672Y0026963D01*
X0113379Y0027670D01*
X0114226Y0026823D01*
G37*
G36*
X0112834Y0028215D02*
X0112127Y0027508D01*
X0111280Y0028355D01*
X0111987Y0029062D01*
X0112834Y0028215D01*
G37*
G36*
X0111443Y0029607D02*
X0110736Y0028900D01*
X0109889Y0029747D01*
X0110596Y0030454D01*
X0111443Y0029607D01*
G37*
G36*
X0110051Y0030999D02*
X0109344Y0030292D01*
X0108497Y0031139D01*
X0109204Y0031846D01*
X0110051Y0030999D01*
G37*
G36*
X0108659Y0032391D02*
X0107952Y0031684D01*
X0107105Y0032531D01*
X0107812Y0033238D01*
X0108659Y0032391D01*
G37*
G36*
X0107267Y0033783D02*
X0106560Y0033076D01*
X0105713Y0033923D01*
X0106420Y0034630D01*
X0107267Y0033783D01*
G37*
G36*
X0105875Y0035175D02*
X0105168Y0034468D01*
X0104321Y0035315D01*
X0105028Y0036022D01*
X0105875Y0035175D01*
G37*
G36*
X0104483Y0036566D02*
X0103776Y0035859D01*
X0102929Y0036706D01*
X0103636Y0037413D01*
X0104483Y0036566D01*
G37*
G36*
X0103091Y0037958D02*
X0102384Y0037251D01*
X0101537Y0038098D01*
X0102244Y0038805D01*
X0103091Y0037958D01*
G37*
G36*
X0101699Y0039350D02*
X0100992Y0038643D01*
X0100145Y0039490D01*
X0100852Y0040197D01*
X0101699Y0039350D01*
G37*
G36*
X0100307Y0040742D02*
X0099600Y0040035D01*
X0098753Y0040882D01*
X0099460Y0041589D01*
X0100307Y0040742D01*
G37*
G36*
X0098915Y0042134D02*
X0098208Y0041427D01*
X0097361Y0042274D01*
X0098068Y0042981D01*
X0098915Y0042134D01*
G37*
G36*
X0097523Y0043526D02*
X0096816Y0042819D01*
X0095969Y0043666D01*
X0096676Y0044373D01*
X0097523Y0043526D01*
G37*
G36*
X0096131Y0044918D02*
X0095424Y0044211D01*
X0094577Y0045058D01*
X0095284Y0045765D01*
X0096131Y0044918D01*
G37*
G36*
X0094739Y0046310D02*
X0094032Y0045603D01*
X0093185Y0046450D01*
X0093892Y0047157D01*
X0094739Y0046310D01*
G37*
G36*
X0093347Y0047702D02*
X0092640Y0046995D01*
X0091793Y0047842D01*
X0092500Y0048549D01*
X0093347Y0047702D01*
G37*
G36*
X0091955Y0049094D02*
X0091248Y0048387D01*
X0090401Y0049234D01*
X0091108Y0049941D01*
X0091955Y0049094D01*
G37*
G36*
X0090563Y0050486D02*
X0089856Y0049779D01*
X0089009Y0050626D01*
X0089716Y0051333D01*
X0090563Y0050486D01*
G37*
G36*
X0089171Y0051878D02*
X0088464Y0051171D01*
X0087617Y0052018D01*
X0088324Y0052725D01*
X0089171Y0051878D01*
G37*
G36*
X0087780Y0053270D02*
X0087073Y0052563D01*
X0086226Y0053410D01*
X0086933Y0054117D01*
X0087780Y0053270D01*
G37*
G36*
X0086388Y0054662D02*
X0085681Y0053955D01*
X0084834Y0054802D01*
X0085541Y0055509D01*
X0086388Y0054662D01*
G37*
G36*
X0084996Y0056054D02*
X0084289Y0055347D01*
X0083442Y0056194D01*
X0084149Y0056901D01*
X0084996Y0056054D01*
G37*
G36*
X0083604Y0057446D02*
X0082897Y0056739D01*
X0082050Y0057586D01*
X0082757Y0058293D01*
X0083604Y0057446D01*
G37*
G36*
X0082212Y0058838D02*
X0081505Y0058131D01*
X0080658Y0058978D01*
X0081365Y0059685D01*
X0082212Y0058838D01*
G37*
G36*
X0122511Y0096353D02*
X0121804Y0095646D01*
X0120957Y0096493D01*
X0121664Y0097200D01*
X0122511Y0096353D01*
G37*
G36*
X0123903Y0094961D02*
X0123196Y0094254D01*
X0122349Y0095101D01*
X0123056Y0095808D01*
X0123903Y0094961D01*
G37*
G36*
X0125295Y0093569D02*
X0124588Y0092862D01*
X0123741Y0093709D01*
X0124448Y0094416D01*
X0125295Y0093569D01*
G37*
G36*
X0126687Y0092177D02*
X0125980Y0091470D01*
X0125133Y0092317D01*
X0125840Y0093024D01*
X0126687Y0092177D01*
G37*
G36*
X0128079Y0090785D02*
X0127372Y0090078D01*
X0126525Y0090925D01*
X0127232Y0091632D01*
X0128079Y0090785D01*
G37*
G36*
X0129471Y0089393D02*
X0128764Y0088686D01*
X0127917Y0089533D01*
X0128624Y0090240D01*
X0129471Y0089393D01*
G37*
G36*
X0130863Y0088002D02*
X0130156Y0087295D01*
X0129309Y0088142D01*
X0130016Y0088849D01*
X0130863Y0088002D01*
G37*
G36*
X0132255Y0086610D02*
X0131548Y0085903D01*
X0130701Y0086750D01*
X0131408Y0087457D01*
X0132255Y0086610D01*
G37*
G36*
X0133647Y0085218D02*
X0132940Y0084511D01*
X0132093Y0085358D01*
X0132800Y0086065D01*
X0133647Y0085218D01*
G37*
G36*
X0135039Y0083826D02*
X0134332Y0083119D01*
X0133485Y0083966D01*
X0134192Y0084673D01*
X0135039Y0083826D01*
G37*
G36*
X0136431Y0082434D02*
X0135724Y0081727D01*
X0134877Y0082574D01*
X0135584Y0083281D01*
X0136431Y0082434D01*
G37*
G36*
X0137823Y0081042D02*
X0137116Y0080335D01*
X0136269Y0081182D01*
X0136976Y0081889D01*
X0137823Y0081042D01*
G37*
G36*
X0139215Y0079650D02*
X0138508Y0078943D01*
X0137661Y0079790D01*
X0138368Y0080497D01*
X0139215Y0079650D01*
G37*
G36*
X0140607Y0078258D02*
X0139900Y0077551D01*
X0139053Y0078398D01*
X0139760Y0079105D01*
X0140607Y0078258D01*
G37*
G36*
X0141998Y0076866D02*
X0141291Y0076159D01*
X0140444Y0077006D01*
X0141151Y0077713D01*
X0141998Y0076866D01*
G37*
G36*
X0143390Y0075474D02*
X0142683Y0074767D01*
X0141836Y0075614D01*
X0142543Y0076321D01*
X0143390Y0075474D01*
G37*
G36*
X0144782Y0074082D02*
X0144075Y0073375D01*
X0143228Y0074222D01*
X0143935Y0074929D01*
X0144782Y0074082D01*
G37*
G36*
X0146174Y0072690D02*
X0145467Y0071983D01*
X0144620Y0072830D01*
X0145327Y0073537D01*
X0146174Y0072690D01*
G37*
G36*
X0147566Y0071298D02*
X0146859Y0070591D01*
X0146012Y0071438D01*
X0146719Y0072145D01*
X0147566Y0071298D01*
G37*
G36*
X0148958Y0069906D02*
X0148251Y0069199D01*
X0147404Y0070046D01*
X0148111Y0070753D01*
X0148958Y0069906D01*
G37*
G36*
X0150350Y0068514D02*
X0149643Y0067807D01*
X0148796Y0068654D01*
X0149503Y0069361D01*
X0150350Y0068514D01*
G37*
G36*
X0151742Y0067122D02*
X0151035Y0066415D01*
X0150188Y0067262D01*
X0150895Y0067969D01*
X0151742Y0067122D01*
G37*
G36*
X0153134Y0065730D02*
X0152427Y0065023D01*
X0151580Y0065870D01*
X0152287Y0066577D01*
X0153134Y0065730D01*
G37*
G36*
X0154526Y0064339D02*
X0153819Y0063632D01*
X0152972Y0064479D01*
X0153679Y0065186D01*
X0154526Y0064339D01*
G37*
G36*
X0121119Y0097745D02*
X0120412Y0097038D01*
X0119565Y0097885D01*
X0120272Y0098592D01*
X0121119Y0097745D01*
G37*
D13*
G36*
X0115618Y0097885D02*
X0114771Y0097038D01*
X0114064Y0097745D01*
X0114911Y0098592D01*
X0115618Y0097885D01*
G37*
G36*
X0114226Y0096493D02*
X0113379Y0095646D01*
X0112672Y0096353D01*
X0113519Y0097200D01*
X0114226Y0096493D01*
G37*
G36*
X0112834Y0095101D02*
X0111987Y0094254D01*
X0111280Y0094961D01*
X0112127Y0095808D01*
X0112834Y0095101D01*
G37*
G36*
X0111443Y0093709D02*
X0110596Y0092862D01*
X0109889Y0093569D01*
X0110736Y0094416D01*
X0111443Y0093709D01*
G37*
G36*
X0110051Y0092317D02*
X0109204Y0091470D01*
X0108497Y0092177D01*
X0109344Y0093024D01*
X0110051Y0092317D01*
G37*
G36*
X0108659Y0090925D02*
X0107812Y0090078D01*
X0107105Y0090785D01*
X0107952Y0091632D01*
X0108659Y0090925D01*
G37*
G36*
X0107267Y0089533D02*
X0106420Y0088686D01*
X0105713Y0089393D01*
X0106560Y0090240D01*
X0107267Y0089533D01*
G37*
G36*
X0105875Y0088142D02*
X0105028Y0087295D01*
X0104321Y0088002D01*
X0105168Y0088849D01*
X0105875Y0088142D01*
G37*
G36*
X0104483Y0086750D02*
X0103636Y0085903D01*
X0102929Y0086610D01*
X0103776Y0087457D01*
X0104483Y0086750D01*
G37*
G36*
X0103091Y0085358D02*
X0102244Y0084511D01*
X0101537Y0085218D01*
X0102384Y0086065D01*
X0103091Y0085358D01*
G37*
G36*
X0101699Y0083966D02*
X0100852Y0083119D01*
X0100145Y0083826D01*
X0100992Y0084673D01*
X0101699Y0083966D01*
G37*
G36*
X0100307Y0082574D02*
X0099460Y0081727D01*
X0098753Y0082434D01*
X0099600Y0083281D01*
X0100307Y0082574D01*
G37*
G36*
X0098915Y0081182D02*
X0098068Y0080335D01*
X0097361Y0081042D01*
X0098208Y0081889D01*
X0098915Y0081182D01*
G37*
G36*
X0097523Y0079790D02*
X0096676Y0078943D01*
X0095969Y0079650D01*
X0096816Y0080497D01*
X0097523Y0079790D01*
G37*
G36*
X0096131Y0078398D02*
X0095284Y0077551D01*
X0094577Y0078258D01*
X0095424Y0079105D01*
X0096131Y0078398D01*
G37*
G36*
X0094739Y0077006D02*
X0093892Y0076159D01*
X0093185Y0076866D01*
X0094032Y0077713D01*
X0094739Y0077006D01*
G37*
G36*
X0093347Y0075614D02*
X0092500Y0074767D01*
X0091793Y0075474D01*
X0092640Y0076321D01*
X0093347Y0075614D01*
G37*
G36*
X0091955Y0074222D02*
X0091108Y0073375D01*
X0090401Y0074082D01*
X0091248Y0074929D01*
X0091955Y0074222D01*
G37*
G36*
X0090563Y0072830D02*
X0089716Y0071983D01*
X0089009Y0072690D01*
X0089856Y0073537D01*
X0090563Y0072830D01*
G37*
G36*
X0089171Y0071438D02*
X0088324Y0070591D01*
X0087617Y0071298D01*
X0088464Y0072145D01*
X0089171Y0071438D01*
G37*
G36*
X0087780Y0070046D02*
X0086933Y0069199D01*
X0086226Y0069906D01*
X0087073Y0070753D01*
X0087780Y0070046D01*
G37*
G36*
X0086388Y0068654D02*
X0085541Y0067807D01*
X0084834Y0068514D01*
X0085681Y0069361D01*
X0086388Y0068654D01*
G37*
G36*
X0084996Y0067262D02*
X0084149Y0066415D01*
X0083442Y0067122D01*
X0084289Y0067969D01*
X0084996Y0067262D01*
G37*
G36*
X0083604Y0065870D02*
X0082757Y0065023D01*
X0082050Y0065730D01*
X0082897Y0066577D01*
X0083604Y0065870D01*
G37*
G36*
X0082212Y0064479D02*
X0081365Y0063632D01*
X0080658Y0064339D01*
X0081505Y0065186D01*
X0082212Y0064479D01*
G37*
G36*
X0122511Y0026963D02*
X0121664Y0026116D01*
X0120957Y0026823D01*
X0121804Y0027670D01*
X0122511Y0026963D01*
G37*
G36*
X0123903Y0028355D02*
X0123056Y0027508D01*
X0122349Y0028215D01*
X0123196Y0029062D01*
X0123903Y0028355D01*
G37*
G36*
X0125295Y0029747D02*
X0124448Y0028900D01*
X0123741Y0029607D01*
X0124588Y0030454D01*
X0125295Y0029747D01*
G37*
G36*
X0126687Y0031139D02*
X0125840Y0030292D01*
X0125133Y0030999D01*
X0125980Y0031846D01*
X0126687Y0031139D01*
G37*
G36*
X0128079Y0032531D02*
X0127232Y0031684D01*
X0126525Y0032391D01*
X0127372Y0033238D01*
X0128079Y0032531D01*
G37*
G36*
X0129471Y0033923D02*
X0128624Y0033076D01*
X0127917Y0033783D01*
X0128764Y0034630D01*
X0129471Y0033923D01*
G37*
G36*
X0130863Y0035315D02*
X0130016Y0034468D01*
X0129309Y0035175D01*
X0130156Y0036022D01*
X0130863Y0035315D01*
G37*
G36*
X0132255Y0036706D02*
X0131408Y0035859D01*
X0130701Y0036566D01*
X0131548Y0037413D01*
X0132255Y0036706D01*
G37*
G36*
X0133647Y0038098D02*
X0132800Y0037251D01*
X0132093Y0037958D01*
X0132940Y0038805D01*
X0133647Y0038098D01*
G37*
G36*
X0135039Y0039490D02*
X0134192Y0038643D01*
X0133485Y0039350D01*
X0134332Y0040197D01*
X0135039Y0039490D01*
G37*
G36*
X0136431Y0040882D02*
X0135584Y0040035D01*
X0134877Y0040742D01*
X0135724Y0041589D01*
X0136431Y0040882D01*
G37*
G36*
X0137823Y0042274D02*
X0136976Y0041427D01*
X0136269Y0042134D01*
X0137116Y0042981D01*
X0137823Y0042274D01*
G37*
G36*
X0139215Y0043666D02*
X0138368Y0042819D01*
X0137661Y0043526D01*
X0138508Y0044373D01*
X0139215Y0043666D01*
G37*
G36*
X0140607Y0045058D02*
X0139760Y0044211D01*
X0139053Y0044918D01*
X0139900Y0045765D01*
X0140607Y0045058D01*
G37*
G36*
X0141998Y0046450D02*
X0141151Y0045603D01*
X0140444Y0046310D01*
X0141291Y0047157D01*
X0141998Y0046450D01*
G37*
G36*
X0143390Y0047842D02*
X0142543Y0046995D01*
X0141836Y0047702D01*
X0142683Y0048549D01*
X0143390Y0047842D01*
G37*
G36*
X0144782Y0049234D02*
X0143935Y0048387D01*
X0143228Y0049094D01*
X0144075Y0049941D01*
X0144782Y0049234D01*
G37*
G36*
X0146174Y0050626D02*
X0145327Y0049779D01*
X0144620Y0050486D01*
X0145467Y0051333D01*
X0146174Y0050626D01*
G37*
G36*
X0147566Y0052018D02*
X0146719Y0051171D01*
X0146012Y0051878D01*
X0146859Y0052725D01*
X0147566Y0052018D01*
G37*
G36*
X0148958Y0053410D02*
X0148111Y0052563D01*
X0147404Y0053270D01*
X0148251Y0054117D01*
X0148958Y0053410D01*
G37*
G36*
X0150350Y0054802D02*
X0149503Y0053955D01*
X0148796Y0054662D01*
X0149643Y0055509D01*
X0150350Y0054802D01*
G37*
G36*
X0151742Y0056194D02*
X0150895Y0055347D01*
X0150188Y0056054D01*
X0151035Y0056901D01*
X0151742Y0056194D01*
G37*
G36*
X0153134Y0057586D02*
X0152287Y0056739D01*
X0151580Y0057446D01*
X0152427Y0058293D01*
X0153134Y0057586D01*
G37*
G36*
X0154526Y0058978D02*
X0153679Y0058131D01*
X0152972Y0058838D01*
X0153819Y0059685D01*
X0154526Y0058978D01*
G37*
G36*
X0121119Y0025571D02*
X0120272Y0024724D01*
X0119565Y0025431D01*
X0120412Y0026278D01*
X0121119Y0025571D01*
G37*
D14*
X0123202Y0109729D02*
X0128202Y0109729D01*
X0130702Y0112229D01*
X0133202Y0109729D01*
X0138202Y0109729D01*
X0140702Y0112229D01*
X0140702Y0127229D01*
X0138202Y0129729D01*
X0133202Y0129729D01*
X0130702Y0127229D01*
X0128202Y0129729D01*
X0123202Y0129729D01*
X0120702Y0127229D01*
X0118202Y0129729D01*
X0113202Y0129729D01*
X0110702Y0127229D01*
X0108202Y0129729D01*
X0103202Y0129729D01*
X0100702Y0127229D01*
X0098202Y0129729D01*
X0093202Y0129729D01*
X0090702Y0127229D01*
X0088202Y0129729D01*
X0083202Y0129729D01*
X0080702Y0127229D01*
X0080702Y0112229D01*
X0083202Y0109729D01*
X0088202Y0109729D01*
X0090702Y0112229D01*
X0093202Y0109729D01*
X0098202Y0109729D01*
X0100702Y0112229D01*
X0103202Y0109729D01*
X0108202Y0109729D01*
X0110702Y0112229D01*
X0113202Y0109729D01*
X0118202Y0109729D01*
X0120702Y0112229D01*
X0123202Y0109729D01*
D15*
X0134450Y0103479D02*
X0137452Y0103479D01*
X0135951Y0103479D02*
X0135951Y0107983D01*
X0137452Y0106481D01*
X0090452Y0131479D02*
X0087450Y0131479D01*
X0088951Y0131479D02*
X0088951Y0135983D01*
X0090452Y0134481D01*
X0085848Y0135232D02*
X0085098Y0135983D01*
X0083596Y0135983D01*
X0082846Y0135232D01*
X0082846Y0134481D01*
X0085848Y0131479D01*
X0082846Y0131479D01*
M02*
